#!OML:ASF F:\VICON\USERDATA\INSTALL\rory3\rory3.ASF
:FULLY-SPECIFIED
:DEGREES
1319
root 3.71586 15.441 -2.97866 384.45 19.8809 363.4
lowerback 27.0184 -1.68567 1.29527
upperback 10.0307 -1.34151 3.97543
thorax -3.69656 -0.625503 3.99801
lowerneck -10.8881 -4.63017 -9.9749
upperneck 31.3939 -5.08855 3.60321
head 12.5998 -2.86301 2.42117
rclavicle -3.97569e-015 -4.6118e-014
rhumerus -40.1559 47.2418 -79.4652
rradius 85.193
rwrist 46.6074
rhand -71.4391 30.2152
rfingers 7.12502
rthumb -42.9567 5.95399
lclavicle -3.97569e-015 -4.6118e-014
lhumerus -34.998 -35.6309 88.3534
lradius 70.2929
lwrist -22.2364
lhand -50.9738 11.6583
lfingers 7.12502
lthumb -23.5235 40.2399
rfemur -71.7379 -21.9428 18.4909
rtibia 69.5807
rfoot -19.1748 1.25469
rtoes -1.6984
lfemur -63.9675 19.1673 -19.2503
ltibia 67.0016
lfoot -18.3037 -9.80134
ltoes -22.0084
1320
root 3.69334 15.345 -3.01645 384.392 20.5751 363.294
lowerback 27.4796 -1.64482 1.26251
upperback 10.0676 -1.27878 3.87035
thorax -3.87983 -0.588786 3.89812
lowerneck -11.1058 -4.62632 -9.94682
upperneck 31.5941 -5.0654 3.62498
head 12.7266 -2.84543 2.4276
rclavicle 1.03368e-014 -6.75868e-015
rhumerus -40.6894 47.2625 -79.5452
rradius 85.6009
rwrist 47.2132
rhand -72.5902 31.057
rfingers 7.12502
rthumb -44.0318 7.18603
lclavicle 1.03368e-014 -6.75868e-015
lhumerus -34.8495 -35.7757 87.8055
lradius 70.6689
lwrist -22.7105
lhand -51.8303 12.5438
lfingers 7.12502
lthumb -24.3448 41.0175
rfemur -72.4327 -22.3664 18.8144
rtibia 70.6459
rfoot -19.2144 1.46465
rtoes -0.551766
lfemur -64.7304 19.0964 -19.1467
ltibia 67.7789
lfoot -18.8726 -10.2286
ltoes -21.4433
1321
root 3.67083 15.2486 -3.05429 384.37 21.2781 363.182
lowerback 27.8984 -1.61553 1.23126
upperback 10.0984 -1.23187 3.7748
thorax -4.04748 -0.560082 3.81032
lowerneck -11.3533 -4.6112 -9.9134
upperneck 31.8512 -5.00834 3.59548
head 12.8804 -2.81899 2.41864
rclavicle -8.74653e-015 3.97569e-016
rhumerus -41.2214 47.3642 -79.7119
rradius 86.0007
rwrist 47.6052
rhand -74.5553 29.3516
rfingers 7.12502
rthumb -45.8604 6.19913
lclavicle -8.74653e-015 3.97569e-016
lhumerus -34.7067 -35.7828 87.2885
lradius 71.125
lwrist -23.1693
lhand -52.2177 13.5645
lfingers 7.12502
lthumb -24.7161 41.9879
rfemur -73.1792 -22.7716 19.1454
rtibia 71.7098
rfoot -19.4032 1.3358
rtoes 0.122091
lfemur -65.5531 18.9645 -19.0505
ltibia 68.5136
lfoot -19.5712 -10.3928
ltoes -21.5633
1322
root 3.65075 15.1574 -3.0886 384.315 21.9811 363.068
lowerback 28.095 -1.57904 1.19099
upperback 10.2742 -1.18694 3.72036
thorax -3.94635 -0.535611 3.76242
lowerneck -11.6226 -4.58338 -9.94785
upperneck 31.9573 -4.91251 3.5634
head 12.9755 -2.78209 2.42387
rclavicle 3.97569e-015 2.14687e-014
rhumerus -41.3297 47.4264 -79.6173
rradius 86.2841
rwrist 47.7165
rhand -74.2204 31.9849
rfingers 7.12502
rthumb -45.5494 8.70505
lclavicle 3.97569e-015 2.14687e-014
lhumerus -34.3134 -35.6227 86.7585
lradius 71.5519
lwrist -23.5988
lhand -52.493 14.1329
lfingers 7.12502
lthumb -24.98 42.52
rfemur -73.8761 -23.2198 19.4598
rtibia 72.7645
rfoot -19.6542 1.12048
rtoes 0.242308
lfemur -66.278 18.8082 -18.9757
ltibia 69.251
lfoot -20.3228 -10.2537
ltoes -21.5749
1323
root 3.63051 15.0586 -3.12666 384.267 22.7614 362.869
lowerback 28.2023 -1.53407 1.20564
upperback 10.4816 -1.11315 3.77222
thorax -3.76734 -0.498799 3.7883
lowerneck -11.9385 -4.58701 -10.0202
upperneck 32.0402 -4.8463 3.53048
head 13.0756 -2.76179 2.42997
rclavicle 3.33958e-014 7.95139e-015
rhumerus -41.2428 47.4718 -79.2194
rradius 86.5553
rwrist 47.8181
rhand -75.3621 44.3872
rfingers 7.12502
rthumb -46.6084 21.5504
lclavicle 3.33958e-014 7.95139e-015
lhumerus -33.8339 -35.553 86.3245
lradius 71.9663
lwrist -23.8096
lhand -52.9268 15.0843
lfingers 7.12502
lthumb -25.3956 43.4129
rfemur -74.6527 -23.7509 19.92
rtibia 73.8484
rfoot -19.7683 0.940617
rtoes 0.553857
lfemur -67.1181 18.5879 -18.7922
ltibia 70.088
lfoot -20.8944 -10.0633
ltoes -21.2794
1324
root 3.60996 14.9473 -3.17112 384.507 23.5329 362.719
lowerback 28.2801 -1.56759 1.41145
upperback 10.4258 -1.09943 3.66308
thorax -3.87407 -0.482276 3.54788
lowerneck -12.1072 -4.54322 -9.98043
upperneck 32.2634 -4.79233 3.60884
head 13.2024 -2.72368 2.46348
rclavicle 2.38542e-015 -5.88403e-014
rhumerus -41.7413 47.4435 -79.3641
rradius 86.9137
rwrist 48.1507
rhand -74.6612 48.3721
rfingers 7.12502
rthumb -45.9586 25.2604
lclavicle 2.38542e-015 -5.88403e-014
lhumerus -33.7163 -35.7353 85.9111
lradius 72.3499
lwrist -23.9317
lhand -53.4923 16.7257
lfingers 7.12502
lthumb -25.9372 44.9762
rfemur -75.8259 -24.2832 20.4612
rtibia 74.9555
rfoot -19.789 0.762883
rtoes 1.26481
lfemur -68.3621 18.2324 -18.5915
ltibia 71.1273
lfoot -21.1729 -10.3373
ltoes -19.4964
1325
root 3.58229 14.8539 -3.20823 384.462 24.3473 362.631
lowerback 28.5872 -1.56697 1.42933
upperback 10.4789 -1.07496 3.62351
thorax -3.9602 -0.464706 3.49485
lowerneck -12.2171 -4.49236 -10.0209
upperneck 32.3964 -4.72675 3.72821
head 13.2816 -2.68432 2.5288
rclavicle -1.74931e-014 -4.49253e-014
rhumerus -42.2054 47.3116 -79.3363
rradius 87.3438
rwrist 48.4316
rhand -75.3136 60.8207
rfingers 7.12502
rthumb -46.5634 37.9645
lclavicle -1.74931e-014 -4.49253e-014
lhumerus -33.5375 -35.8624 85.5883
lradius 72.7512
lwrist -24.2677
lhand -54.246 18.4678
lfingers 7.12502
lthumb -26.6588 46.6105
rfemur -76.5191 -24.8135 20.8091
rtibia 76.0088
rfoot -19.98 0.620227
rtoes 1.79654
lfemur -69.2084 17.8564 -18.2212
ltibia 72.2548
lfoot -21.2877 -11.0604
ltoes -17.0116
